{"title":"Bombay.Dreams.[2004].DvdRip.XviD-KnÃƒÂ£","uid":6639350,"size":1567309824,"categoryP":"video","categoryS":"movies","magnet":"?xt=urn:btih:f1c46177ff6ec1c4a3758adfd78f10473ffc61ec&amp;dn=Bombay.Dreams.%5B2004%5D.DvdRip.XviD-Kn%C3%83%C2%A3&amp;tr=udp%3A%2F%2Ftracker.openbittorrent.com%3A80&amp;tr=udp%3A%2F%2Fopen.demonii.com%3A1337&amp;tr=udp%3A%2F%2Ftracker.coppersurfer.tk%3A6969&amp;tr=udp%3A%2F%2Fexodus.desync.com%3A6969","seeders":1,"leechers":0,"uploader":"Jon.Pson","files":1,"time":1314698007,"description":"The teenager Ebba, has no idea who her real mother is, or where she is. In India, she and her friend Camilla go on a search for Ebba's mother. \n\n\nGeneral\nComplete name                    : Z:\\Movies\\Bombay.Dreams.[2004].DvdRip.XviD-KnÃƒÂ£\\Bombay.Dreams.[2004].DvdRip.XviD-KnÃƒÂ£.avi\nFormat                           : AVI\nFormat/Info                      : Audio Video Interleave\nFile size                        : 1.46 GiB\nDuration                         : 1h 27mn\nOverall bit rate                 : 2 399 Kbps\nWriting application              : VirtualDubMod 1.5.4.1 (build 2178/release)\nWriting library                  : VirtualDubMod build 2178/release\n\nVideo\nID                               : 0\nFormat                           : MPEG-4 Visual\nFormat profile                   : Advanced Simple@L5\nFormat settings, BVOP            : 1\nFormat settings, QPel            : No\nFormat settings, GMC             : No warppoints\nFormat settings, Matrix          : Custom\nCodec ID                         : XVID\nCodec ID/Hint                    : XviD\nDuration                         : 1h 27mn\nBit rate                         : 1 944 Kbps\nWidth                            : 672 pixels\nHeight                           : 368 pixels\nDisplay aspect ratio             : 16:9\nFrame rate                       : 25.000 fps\nColor space                      : YUV\nChroma subsampling               : 4:2:0\nBit depth                        : 8 bits\nScan type                        : Progressive\nCompression mode                 : Lossy\nBits/(Pixel*Frame)               : 0.314\nStream size                      : 1.18 GiB (81%)\nWriting library                  : XviD 1.2.1 (UTC 2008-12-04)\n\nAudio\nID                               : 1\nFormat                           : AC-3\nFormat/Info                      : Audio Coding 3\nMode extension                   : CM (complete main)\nCodec ID                         : 2000\nDuration                         : 1h 27mn\nBit rate mode                    : Constant\nBit rate                         : 448 Kbps\nChannel(s)                       : 6 channels\nChannel positions                : Front: L C R, Side: L R, LFE\nSampling rate                    : 48.0 KHz\nBit depth                        : 16 bits\nCompression mode                 : Lossy\nStream size                      : 279 MiB (19%)\nAlignment                        : Split accross interleaves\nInterleave, duration             : 96 ms (2.40 video frames)\nInterleave, preload duration     : 96 ms\nLanguage                         : Swedish\n\n","torrent":{"xt":"urn:btih:f1c46177ff6ec1c4a3758adfd78f10473ffc61ec","amp;dn":"Bombay.Dreams.%5B2004%5D.DvdRip.XviD-Kn%C3%83%C2%A3","amp;tr":["udp%3A%2F%2Ftracker.openbittorrent.com%3A80","udp%3A%2F%2Fopen.demonii.com%3A1337","udp%3A%2F%2Ftracker.coppersurfer.tk%3A6969","udp%3A%2F%2Fexodus.desync.com%3A6969"],"infoHash":"f1c46177ff6ec1c4a3758adfd78f10473ffc61ec","infoHashBuffer":{"type":"Buffer","data":[241,196,97,119,255,110,193,196,163,117,138,223,215,143,16,71,63,252,97,236]},"announce":[],"urlList":[]}}